<svg xmlns="http://www.w3.org/2000/svg" xmlns:xlink="http://www.w3.org/1999/xlink" width="500" zoomAndPan="magnify" viewBox="0 0 375 374.999991" height="500" preserveAspectRatio="xMidYMid meet" version="1.0"><defs><g/><clipPath id="29fca8bb74"><path d="M 131.234375 28.925781 L 178.742188 28.925781 L 178.742188 76.433594 L 131.234375 76.433594 Z M 131.234375 28.925781 " clip-rule="nonzero"/></clipPath><clipPath id="1bcd1c9b98"><path d="M 154.988281 28.925781 C 141.867188 28.925781 131.234375 39.5625 131.234375 52.679688 C 131.234375 65.800781 141.867188 76.433594 154.988281 76.433594 C 168.105469 76.433594 178.742188 65.800781 178.742188 52.679688 C 178.742188 39.5625 168.105469 28.925781 154.988281 28.925781 Z M 154.988281 28.925781 " clip-rule="nonzero"/></clipPath><clipPath id="14069964b8"><path d="M 196.792969 28.925781 L 244.300781 28.925781 L 244.300781 76.433594 L 196.792969 76.433594 Z M 196.792969 28.925781 " clip-rule="nonzero"/></clipPath><clipPath id="c7e1458256"><path d="M 220.546875 28.925781 C 207.429688 28.925781 196.792969 39.5625 196.792969 52.679688 C 196.792969 65.800781 207.429688 76.433594 220.546875 76.433594 C 233.667969 76.433594 244.300781 65.800781 244.300781 52.679688 C 244.300781 39.5625 233.667969 28.925781 220.546875 28.925781 Z M 220.546875 28.925781 " clip-rule="nonzero"/></clipPath></defs><rect x="-37.5" width="450" fill="#ffffff" y="-37.499999" height="449.999989" fill-opacity="1"/><rect x="-37.5" width="450" fill="#ffffff" y="-37.499999" height="449.999989" fill-opacity="1"/><g fill="#ff3131" fill-opacity="1"><g transform="translate(121.647388, 249.411347)"><g><path d="M 53.96875 -10 C 53.96875 6.59375 48.15625 20.707031 36.53125 32.34375 C 24.894531 43.96875 10.78125 49.78125 -5.8125 49.78125 L -5.8125 47.921875 C -0.226562 47.921875 4.5 45.984375 8.375 42.109375 C 12.25 38.234375 14.1875 33.503906 14.1875 27.921875 L 14.1875 -159.59375 L 53.96875 -159.59375 Z M 53.96875 -10 "/></g></g></g><g fill="#000000" fill-opacity="1"><g transform="translate(187.49504, 249.411347)"><g><path d="M 53.96875 -10 C 53.96875 6.59375 48.15625 20.707031 36.53125 32.34375 C 24.894531 43.96875 10.78125 49.78125 -5.8125 49.78125 L -5.8125 47.921875 C -0.226562 47.921875 4.5 45.984375 8.375 42.109375 C 12.25 38.234375 14.1875 33.503906 14.1875 27.921875 L 14.1875 -159.59375 L 53.96875 -159.59375 Z M 53.96875 -10 "/></g></g></g><g clip-path="url(#29fca8bb74)"><g clip-path="url(#1bcd1c9b98)"><path fill="#000000" d="M 131.234375 28.925781 L 178.742188 28.925781 L 178.742188 76.433594 L 131.234375 76.433594 Z M 131.234375 28.925781 " fill-opacity="1" fill-rule="nonzero"/></g></g><g clip-path="url(#14069964b8)"><g clip-path="url(#c7e1458256)"><path fill="#ff3131" d="M 196.792969 28.925781 L 244.300781 28.925781 L 244.300781 76.433594 L 196.792969 76.433594 Z M 196.792969 28.925781 " fill-opacity="1" fill-rule="nonzero"/></g></g><g fill="#000000" fill-opacity="1"><g transform="translate(67.742058, 332.05697)"><g><path d="M 6.28125 -4.984375 L 6.28125 -10.921875 C 6.28125 -11.515625 6.21875 -11.945312 6.09375 -12.21875 C 5.976562 -12.488281 5.835938 -12.679688 5.671875 -12.796875 C 5.503906 -12.910156 5.359375 -13.015625 5.234375 -13.109375 C 5.117188 -13.203125 5.0625 -13.359375 5.0625 -13.578125 C 5.0625 -13.765625 5.140625 -13.890625 5.296875 -13.953125 C 5.460938 -14.023438 5.738281 -14.0625 6.125 -14.0625 L 8.828125 -14.0625 C 9.523438 -14.0625 9.875 -13.898438 9.875 -13.578125 C 9.875 -13.359375 9.8125 -13.203125 9.6875 -13.109375 C 9.5625 -13.015625 9.414062 -12.910156 9.25 -12.796875 C 9.09375 -12.679688 8.953125 -12.488281 8.828125 -12.21875 C 8.703125 -11.945312 8.640625 -11.515625 8.640625 -10.921875 L 8.640625 -5.78125 C 8.640625 -4.5625 8.503906 -3.503906 8.234375 -2.609375 C 7.972656 -1.722656 7.515625 -1.035156 6.859375 -0.546875 C 6.210938 -0.0546875 5.289062 0.1875 4.09375 0.1875 C 3.238281 0.1875 2.523438 0.0234375 1.953125 -0.296875 C 1.390625 -0.628906 0.96875 -1.050781 0.6875 -1.5625 C 0.40625 -2.070312 0.265625 -2.601562 0.265625 -3.15625 C 0.265625 -3.550781 0.375 -3.851562 0.59375 -4.0625 C 0.8125 -4.269531 1.066406 -4.375 1.359375 -4.375 C 1.734375 -4.375 2.015625 -4.265625 2.203125 -4.046875 C 2.390625 -3.828125 2.503906 -3.5625 2.546875 -3.25 C 2.648438 -2.59375 2.835938 -2.054688 3.109375 -1.640625 C 3.378906 -1.234375 3.796875 -1.03125 4.359375 -1.03125 C 5.023438 -1.03125 5.507812 -1.382812 5.8125 -2.09375 C 6.125 -2.800781 6.28125 -3.765625 6.28125 -4.984375 Z M 6.28125 -4.984375 "/></g></g></g><g fill="#000000" fill-opacity="1"><g transform="translate(83.081098, 332.05697)"><g><path d="M 7.421875 0.203125 C 5.648438 0.203125 4.285156 -0.3125 3.328125 -1.34375 C 2.378906 -2.382812 1.90625 -3.882812 1.90625 -5.84375 L 1.90625 -10.90625 C 1.90625 -11.488281 1.84375 -11.914062 1.71875 -12.1875 C 1.601562 -12.46875 1.460938 -12.664062 1.296875 -12.78125 C 1.128906 -12.894531 0.984375 -13 0.859375 -13.09375 C 0.742188 -13.1875 0.6875 -13.335938 0.6875 -13.546875 C 0.6875 -13.734375 0.765625 -13.859375 0.921875 -13.921875 C 1.085938 -13.992188 1.363281 -14.03125 1.75 -14.03125 L 4.4375 -14.03125 C 5.144531 -14.03125 5.5 -13.867188 5.5 -13.546875 C 5.5 -13.335938 5.4375 -13.1875 5.3125 -13.09375 C 5.1875 -13 5.039062 -12.894531 4.875 -12.78125 C 4.707031 -12.664062 4.554688 -12.46875 4.421875 -12.1875 C 4.296875 -11.914062 4.234375 -11.488281 4.234375 -10.90625 L 4.234375 -5.421875 C 4.234375 -4.023438 4.5625 -2.957031 5.21875 -2.21875 C 5.875 -1.488281 6.789062 -1.125 7.96875 -1.125 C 9.1875 -1.125 10.113281 -1.539062 10.75 -2.375 C 11.382812 -3.21875 11.703125 -4.300781 11.703125 -5.625 L 11.671875 -11.578125 C 11.671875 -11.953125 11.613281 -12.238281 11.5 -12.4375 C 11.394531 -12.632812 11.269531 -12.785156 11.125 -12.890625 C 10.988281 -12.992188 10.863281 -13.085938 10.75 -13.171875 C 10.644531 -13.265625 10.59375 -13.398438 10.59375 -13.578125 C 10.59375 -13.765625 10.664062 -13.890625 10.8125 -13.953125 C 10.96875 -14.023438 11.207031 -14.0625 11.53125 -14.0625 L 13.078125 -14.0625 C 13.390625 -14.0625 13.617188 -14.023438 13.765625 -13.953125 C 13.921875 -13.890625 14 -13.765625 14 -13.578125 C 14 -13.410156 13.941406 -13.28125 13.828125 -13.1875 C 13.722656 -13.09375 13.597656 -12.992188 13.453125 -12.890625 C 13.304688 -12.785156 13.175781 -12.632812 13.0625 -12.4375 C 12.957031 -12.238281 12.90625 -11.953125 12.90625 -11.578125 L 12.890625 -6 C 12.890625 -4.007812 12.445312 -2.476562 11.5625 -1.40625 C 10.675781 -0.332031 9.296875 0.203125 7.421875 0.203125 Z M 7.421875 0.203125 "/></g></g></g><g fill="#000000" fill-opacity="1"><g transform="translate(102.595561, 332.05697)"><g><path d="M 12.109375 -14.0625 L 13.671875 -14.0625 C 13.984375 -14.0625 14.210938 -14.023438 14.359375 -13.953125 C 14.515625 -13.890625 14.59375 -13.765625 14.59375 -13.578125 C 14.59375 -13.410156 14.539062 -13.28125 14.4375 -13.1875 C 14.332031 -13.09375 14.203125 -12.992188 14.046875 -12.890625 C 13.898438 -12.785156 13.773438 -12.632812 13.671875 -12.4375 C 13.566406 -12.238281 13.515625 -11.953125 13.515625 -11.578125 L 13.515625 -0.71875 C 13.515625 -0.457031 13.460938 -0.269531 13.359375 -0.15625 C 13.265625 -0.0507812 13.109375 0 12.890625 0 C 12.703125 0 12.554688 -0.0546875 12.453125 -0.171875 C 12.359375 -0.285156 12.3125 -0.410156 12.3125 -0.546875 C 12.3125 -0.984375 12.125 -1.410156 11.75 -1.828125 L 3.109375 -10.9375 L 3.125 -2.46875 C 3.125 -2.09375 3.179688 -1.804688 3.296875 -1.609375 C 3.410156 -1.421875 3.539062 -1.269531 3.6875 -1.15625 C 3.84375 -1.050781 3.972656 -0.957031 4.078125 -0.875 C 4.179688 -0.789062 4.234375 -0.660156 4.234375 -0.484375 C 4.234375 -0.296875 4.15625 -0.164062 4 -0.09375 C 3.851562 -0.03125 3.625 0 3.3125 0 L 1.75 0 C 1.144531 0 0.84375 -0.160156 0.84375 -0.484375 C 0.84375 -0.640625 0.894531 -0.765625 1 -0.859375 C 1.113281 -0.953125 1.238281 -1.050781 1.375 -1.15625 C 1.519531 -1.269531 1.644531 -1.421875 1.75 -1.609375 C 1.851562 -1.804688 1.90625 -2.09375 1.90625 -2.46875 L 1.90625 -10.984375 C 1.90625 -11.585938 1.84375 -12.019531 1.71875 -12.28125 C 1.59375 -12.550781 1.445312 -12.734375 1.28125 -12.828125 C 1.125 -12.929688 0.976562 -13.023438 0.84375 -13.109375 C 0.71875 -13.191406 0.65625 -13.347656 0.65625 -13.578125 C 0.65625 -13.773438 0.738281 -13.90625 0.90625 -13.96875 C 1.082031 -14.03125 1.347656 -14.0625 1.703125 -14.0625 L 2.96875 -14.0625 C 3.144531 -14.0625 3.289062 -14.023438 3.40625 -13.953125 C 3.519531 -13.890625 3.644531 -13.789062 3.78125 -13.65625 L 12.3125 -4.5625 L 12.28125 -11.578125 C 12.28125 -11.953125 12.226562 -12.238281 12.125 -12.4375 C 12.019531 -12.632812 11.894531 -12.785156 11.75 -12.890625 C 11.601562 -12.992188 11.472656 -13.085938 11.359375 -13.171875 C 11.253906 -13.265625 11.203125 -13.398438 11.203125 -13.578125 C 11.203125 -13.765625 11.273438 -13.890625 11.421875 -13.953125 C 11.566406 -14.023438 11.796875 -14.0625 12.109375 -14.0625 Z M 12.109375 -14.0625 "/></g></g></g><g fill="#000000" fill-opacity="1"><g transform="translate(122.772475, 332.05697)"><g><path d="M 3.40625 -3.53125 L 2.984375 -2.46875 C 2.828125 -2.070312 2.765625 -1.769531 2.796875 -1.5625 C 2.828125 -1.363281 2.894531 -1.21875 3 -1.125 C 3.113281 -1.03125 3.222656 -0.9375 3.328125 -0.84375 C 3.441406 -0.757812 3.5 -0.640625 3.5 -0.484375 C 3.5 -0.296875 3.414062 -0.164062 3.25 -0.09375 C 3.09375 -0.03125 2.898438 0 2.671875 0 L 0.9375 0 C 0.65625 0 0.429688 -0.03125 0.265625 -0.09375 C 0.0976562 -0.164062 0.015625 -0.289062 0.015625 -0.46875 C 0.015625 -0.632812 0.0703125 -0.757812 0.1875 -0.84375 C 0.300781 -0.9375 0.445312 -1.03125 0.625 -1.125 C 0.800781 -1.21875 0.984375 -1.363281 1.171875 -1.5625 C 1.359375 -1.769531 1.53125 -2.070312 1.6875 -2.46875 L 5.375 -11.78125 C 5.5 -12.09375 5.535156 -12.328125 5.484375 -12.484375 C 5.429688 -12.648438 5.34375 -12.78125 5.21875 -12.875 C 5.101562 -12.96875 4.988281 -13.0625 4.875 -13.15625 C 4.757812 -13.257812 4.703125 -13.398438 4.703125 -13.578125 C 4.703125 -13.898438 4.898438 -14.0625 5.296875 -14.0625 L 7.34375 -14.0625 C 7.65625 -14.0625 7.867188 -13.910156 7.984375 -13.609375 L 12.375 -2.515625 C 12.53125 -2.097656 12.691406 -1.785156 12.859375 -1.578125 C 13.035156 -1.378906 13.195312 -1.234375 13.34375 -1.140625 C 13.5 -1.046875 13.625 -0.957031 13.71875 -0.875 C 13.8125 -0.800781 13.859375 -0.675781 13.859375 -0.5 C 13.859375 -0.3125 13.78125 -0.179688 13.625 -0.109375 C 13.46875 -0.0351562 13.203125 0 12.828125 0 L 10.046875 0 C 9.453125 0 9.15625 -0.15625 9.15625 -0.46875 C 9.15625 -0.65625 9.210938 -0.796875 9.328125 -0.890625 C 9.453125 -0.984375 9.582031 -1.078125 9.71875 -1.171875 C 9.851562 -1.273438 9.941406 -1.425781 9.984375 -1.625 C 10.035156 -1.820312 9.976562 -2.117188 9.8125 -2.515625 L 9.4375 -3.515625 C 9.382812 -3.660156 9.320312 -3.773438 9.25 -3.859375 C 9.1875 -3.953125 9.0625 -4.015625 8.875 -4.046875 C 8.695312 -4.078125 8.421875 -4.09375 8.046875 -4.09375 C 7.671875 -4.101562 7.144531 -4.109375 6.46875 -4.109375 C 5.757812 -4.109375 5.207031 -4.101562 4.8125 -4.09375 C 4.425781 -4.09375 4.140625 -4.078125 3.953125 -4.046875 C 3.773438 -4.015625 3.65625 -3.957031 3.59375 -3.875 C 3.53125 -3.789062 3.46875 -3.675781 3.40625 -3.53125 Z M 6.484375 -5.1875 C 7.242188 -5.1875 7.78125 -5.191406 8.09375 -5.203125 C 8.414062 -5.210938 8.59375 -5.253906 8.625 -5.328125 C 8.65625 -5.398438 8.640625 -5.523438 8.578125 -5.703125 L 6.40625 -11.21875 L 4.25 -5.703125 C 4.1875 -5.523438 4.175781 -5.398438 4.21875 -5.328125 C 4.257812 -5.253906 4.445312 -5.210938 4.78125 -5.203125 C 5.113281 -5.191406 5.679688 -5.1875 6.484375 -5.1875 Z M 6.484375 -5.1875 "/></g></g></g><g fill="#000000" fill-opacity="1"><g transform="translate(141.805166, 332.05697)"><g><path d="M 1.984375 -3.125 L 1.984375 -10.921875 C 1.984375 -11.515625 1.921875 -11.945312 1.796875 -12.21875 C 1.679688 -12.488281 1.539062 -12.679688 1.375 -12.796875 C 1.207031 -12.910156 1.0625 -13.015625 0.9375 -13.109375 C 0.820312 -13.203125 0.765625 -13.359375 0.765625 -13.578125 C 0.765625 -13.765625 0.84375 -13.890625 1 -13.953125 C 1.164062 -14.023438 1.441406 -14.0625 1.828125 -14.0625 L 4.515625 -14.0625 C 5.222656 -14.0625 5.578125 -13.898438 5.578125 -13.578125 C 5.578125 -13.359375 5.515625 -13.203125 5.390625 -13.109375 C 5.265625 -13.015625 5.117188 -12.910156 4.953125 -12.796875 C 4.785156 -12.679688 4.632812 -12.488281 4.5 -12.21875 C 4.375 -11.945312 4.3125 -11.515625 4.3125 -10.921875 L 4.3125 -3.125 C 4.3125 -2.539062 4.367188 -2.109375 4.484375 -1.828125 C 4.609375 -1.554688 4.753906 -1.363281 4.921875 -1.25 C 5.097656 -1.132812 5.242188 -1.03125 5.359375 -0.9375 C 5.484375 -0.84375 5.546875 -0.691406 5.546875 -0.484375 C 5.546875 -0.304688 5.460938 -0.179688 5.296875 -0.109375 C 5.140625 -0.0351562 4.867188 0 4.484375 0 L 1.78125 0 C 1.070312 0 0.71875 -0.160156 0.71875 -0.484375 C 0.71875 -0.691406 0.78125 -0.84375 0.90625 -0.9375 C 1.039062 -1.03125 1.191406 -1.132812 1.359375 -1.25 C 1.523438 -1.363281 1.671875 -1.554688 1.796875 -1.828125 C 1.921875 -2.109375 1.984375 -2.539062 1.984375 -3.125 Z M 1.984375 -3.125 "/></g></g></g><g fill="#000000" fill-opacity="1"><g transform="translate(153.069138, 332.05697)"><g><path d="M 1.78125 -14.0625 L 6.25 -14.0625 C 7.664062 -14.0625 8.867188 -13.863281 9.859375 -13.46875 C 10.859375 -13.070312 11.671875 -12.539062 12.296875 -11.875 C 12.929688 -11.207031 13.394531 -10.472656 13.6875 -9.671875 C 13.988281 -8.867188 14.140625 -8.066406 14.140625 -7.265625 C 14.140625 -6.304688 13.988281 -5.390625 13.6875 -4.515625 C 13.394531 -3.648438 12.953125 -2.875 12.359375 -2.1875 C 11.765625 -1.507812 11.003906 -0.972656 10.078125 -0.578125 C 9.148438 -0.191406 8.050781 0 6.78125 0 L 1.78125 0 C 1.40625 0 1.132812 -0.03125 0.96875 -0.09375 C 0.800781 -0.15625 0.71875 -0.285156 0.71875 -0.484375 C 0.71875 -0.710938 0.78125 -0.863281 0.90625 -0.9375 C 1.039062 -1.019531 1.191406 -1.109375 1.359375 -1.203125 C 1.523438 -1.304688 1.671875 -1.492188 1.796875 -1.765625 C 1.921875 -2.035156 1.984375 -2.472656 1.984375 -3.078125 L 1.984375 -10.984375 C 1.984375 -11.585938 1.921875 -12.019531 1.796875 -12.28125 C 1.671875 -12.550781 1.523438 -12.734375 1.359375 -12.828125 C 1.191406 -12.929688 1.039062 -13.023438 0.90625 -13.109375 C 0.78125 -13.191406 0.71875 -13.347656 0.71875 -13.578125 C 0.71875 -13.773438 0.800781 -13.90625 0.96875 -13.96875 C 1.132812 -14.03125 1.40625 -14.0625 1.78125 -14.0625 Z M 6.546875 -1.046875 C 7.859375 -1.046875 8.882812 -1.28125 9.625 -1.75 C 10.363281 -2.226562 10.890625 -2.863281 11.203125 -3.65625 C 11.515625 -4.445312 11.671875 -5.300781 11.671875 -6.21875 C 11.671875 -7.507812 11.425781 -8.671875 10.9375 -9.703125 C 10.445312 -10.734375 9.742188 -11.546875 8.828125 -12.140625 C 7.921875 -12.742188 6.835938 -13.046875 5.578125 -13.046875 C 5.097656 -13.046875 4.765625 -12.992188 4.578125 -12.890625 C 4.398438 -12.785156 4.3125 -12.546875 4.3125 -12.171875 L 4.3125 -2.25 C 4.3125 -1.976562 4.363281 -1.753906 4.46875 -1.578125 C 4.582031 -1.398438 4.800781 -1.265625 5.125 -1.171875 C 5.445312 -1.085938 5.921875 -1.046875 6.546875 -1.046875 Z M 6.546875 -1.046875 "/></g></g></g><g fill="#000000" fill-opacity="1"><g transform="translate(172.985078, 332.05697)"><g/></g></g><g fill="#000000" fill-opacity="1"><g transform="translate(181.960599, 332.05697)"><g><path d="M 7.390625 0.1875 C 6.015625 0.1875 4.832031 -0.0351562 3.84375 -0.484375 C 2.863281 -0.941406 2.109375 -1.550781 1.578125 -2.3125 C 1.054688 -3.070312 0.796875 -3.90625 0.796875 -4.8125 C 0.796875 -5.488281 0.9375 -6.097656 1.21875 -6.640625 C 1.5 -7.179688 1.859375 -7.648438 2.296875 -8.046875 C 2.742188 -8.453125 3.207031 -8.769531 3.6875 -9 C 3.3125 -9.226562 3 -9.53125 2.75 -9.90625 C 2.507812 -10.289062 2.390625 -10.753906 2.390625 -11.296875 C 2.390625 -11.878906 2.554688 -12.394531 2.890625 -12.84375 C 3.234375 -13.289062 3.6875 -13.644531 4.25 -13.90625 C 4.8125 -14.164062 5.429688 -14.296875 6.109375 -14.296875 C 6.773438 -14.296875 7.351562 -14.191406 7.84375 -13.984375 C 8.34375 -13.785156 8.738281 -13.53125 9.03125 -13.21875 C 9.195312 -13.050781 9.265625 -12.882812 9.234375 -12.71875 C 9.210938 -12.5625 9.128906 -12.453125 8.984375 -12.390625 C 8.847656 -12.335938 8.675781 -12.367188 8.46875 -12.484375 C 7.851562 -12.878906 7.21875 -13.078125 6.5625 -13.078125 C 5.976562 -13.078125 5.488281 -12.914062 5.09375 -12.59375 C 4.707031 -12.269531 4.515625 -11.847656 4.515625 -11.328125 C 4.515625 -10.953125 4.582031 -10.613281 4.71875 -10.3125 C 4.851562 -10.007812 5.070312 -9.742188 5.375 -9.515625 C 5.882812 -9.585938 6.320312 -9.570312 6.6875 -9.46875 C 7.050781 -9.363281 7.234375 -9.160156 7.234375 -8.859375 C 7.234375 -8.597656 7.117188 -8.40625 6.890625 -8.28125 C 6.660156 -8.164062 6.367188 -8.125 6.015625 -8.15625 C 5.671875 -8.195312 5.3125 -8.296875 4.9375 -8.453125 C 4.519531 -8.140625 4.15625 -7.726562 3.84375 -7.21875 C 3.53125 -6.71875 3.375 -6.046875 3.375 -5.203125 C 3.375 -4.453125 3.5625 -3.753906 3.9375 -3.109375 C 4.3125 -2.460938 4.84375 -1.945312 5.53125 -1.5625 C 6.226562 -1.175781 7.0625 -0.984375 8.03125 -0.984375 C 8.957031 -0.984375 9.6875 -1.148438 10.21875 -1.484375 C 10.75 -1.816406 11.128906 -2.222656 11.359375 -2.703125 C 11.585938 -3.191406 11.703125 -3.65625 11.703125 -4.09375 C 11.703125 -4.6875 11.5625 -5.171875 11.28125 -5.546875 C 11 -5.929688 10.578125 -6.125 10.015625 -6.125 C 9.453125 -6.125 9.039062 -5.9375 8.78125 -5.5625 C 8.519531 -5.195312 8.390625 -4.78125 8.390625 -4.3125 C 8.390625 -4.195312 8.316406 -4.132812 8.171875 -4.125 C 8.035156 -4.113281 7.894531 -4.1875 7.75 -4.34375 C 7.601562 -4.5 7.53125 -4.75 7.53125 -5.09375 C 7.53125 -5.539062 7.648438 -5.929688 7.890625 -6.265625 C 8.140625 -6.597656 8.488281 -6.910156 8.9375 -7.203125 C 9.320312 -7.460938 9.75 -7.695312 10.21875 -7.90625 C 10.695312 -8.125 11.144531 -8.347656 11.5625 -8.578125 C 12.4375 -9.046875 13.09375 -9.5 13.53125 -9.9375 C 13.96875 -10.375 14.1875 -10.863281 14.1875 -11.40625 C 14.1875 -11.6875 14.109375 -11.890625 13.953125 -12.015625 C 13.804688 -12.140625 13.609375 -12.203125 13.359375 -12.203125 C 13.222656 -12.203125 13.082031 -12.175781 12.9375 -12.125 C 12.800781 -12.082031 12.691406 -12.050781 12.609375 -12.03125 C 12.359375 -11.9375 12.1875 -11.972656 12.09375 -12.140625 C 12.007812 -12.316406 12.066406 -12.515625 12.265625 -12.734375 C 12.453125 -12.929688 12.707031 -13.097656 13.03125 -13.234375 C 13.351562 -13.367188 13.707031 -13.441406 14.09375 -13.453125 C 14.4375 -13.453125 14.769531 -13.378906 15.09375 -13.234375 C 15.425781 -13.097656 15.703125 -12.890625 15.921875 -12.609375 C 16.140625 -12.335938 16.25 -11.992188 16.25 -11.578125 C 16.25 -10.859375 16.015625 -10.222656 15.546875 -9.671875 C 15.085938 -9.128906 14.492188 -8.660156 13.765625 -8.265625 C 13.046875 -7.867188 12.285156 -7.535156 11.484375 -7.265625 C 12.109375 -7.085938 12.628906 -6.753906 13.046875 -6.265625 C 13.472656 -5.785156 13.6875 -5.195312 13.6875 -4.5 C 13.6875 -3.707031 13.441406 -2.953125 12.953125 -2.234375 C 12.472656 -1.523438 11.765625 -0.941406 10.828125 -0.484375 C 9.890625 -0.0351562 8.742188 0.1875 7.390625 0.1875 Z M 7.390625 0.1875 "/></g></g></g><g fill="#000000" fill-opacity="1"><g transform="translate(203.883964, 332.05697)"><g/></g></g><g fill="#000000" fill-opacity="1"><g transform="translate(212.859484, 332.05697)"><g><path d="M 6.28125 -4.984375 L 6.28125 -10.921875 C 6.28125 -11.515625 6.21875 -11.945312 6.09375 -12.21875 C 5.976562 -12.488281 5.835938 -12.679688 5.671875 -12.796875 C 5.503906 -12.910156 5.359375 -13.015625 5.234375 -13.109375 C 5.117188 -13.203125 5.0625 -13.359375 5.0625 -13.578125 C 5.0625 -13.765625 5.140625 -13.890625 5.296875 -13.953125 C 5.460938 -14.023438 5.738281 -14.0625 6.125 -14.0625 L 8.828125 -14.0625 C 9.523438 -14.0625 9.875 -13.898438 9.875 -13.578125 C 9.875 -13.359375 9.8125 -13.203125 9.6875 -13.109375 C 9.5625 -13.015625 9.414062 -12.910156 9.25 -12.796875 C 9.09375 -12.679688 8.953125 -12.488281 8.828125 -12.21875 C 8.703125 -11.945312 8.640625 -11.515625 8.640625 -10.921875 L 8.640625 -5.78125 C 8.640625 -4.5625 8.503906 -3.503906 8.234375 -2.609375 C 7.972656 -1.722656 7.515625 -1.035156 6.859375 -0.546875 C 6.210938 -0.0546875 5.289062 0.1875 4.09375 0.1875 C 3.238281 0.1875 2.523438 0.0234375 1.953125 -0.296875 C 1.390625 -0.628906 0.96875 -1.050781 0.6875 -1.5625 C 0.40625 -2.070312 0.265625 -2.601562 0.265625 -3.15625 C 0.265625 -3.550781 0.375 -3.851562 0.59375 -4.0625 C 0.8125 -4.269531 1.066406 -4.375 1.359375 -4.375 C 1.734375 -4.375 2.015625 -4.265625 2.203125 -4.046875 C 2.390625 -3.828125 2.503906 -3.5625 2.546875 -3.25 C 2.648438 -2.59375 2.835938 -2.054688 3.109375 -1.640625 C 3.378906 -1.234375 3.796875 -1.03125 4.359375 -1.03125 C 5.023438 -1.03125 5.507812 -1.382812 5.8125 -2.09375 C 6.125 -2.800781 6.28125 -3.765625 6.28125 -4.984375 Z M 6.28125 -4.984375 "/></g></g></g><g fill="#000000" fill-opacity="1"><g transform="translate(228.198526, 332.05697)"><g><path d="M 3.40625 -3.53125 L 2.984375 -2.46875 C 2.828125 -2.070312 2.765625 -1.769531 2.796875 -1.5625 C 2.828125 -1.363281 2.894531 -1.21875 3 -1.125 C 3.113281 -1.03125 3.222656 -0.9375 3.328125 -0.84375 C 3.441406 -0.757812 3.5 -0.640625 3.5 -0.484375 C 3.5 -0.296875 3.414062 -0.164062 3.25 -0.09375 C 3.09375 -0.03125 2.898438 0 2.671875 0 L 0.9375 0 C 0.65625 0 0.429688 -0.03125 0.265625 -0.09375 C 0.0976562 -0.164062 0.015625 -0.289062 0.015625 -0.46875 C 0.015625 -0.632812 0.0703125 -0.757812 0.1875 -0.84375 C 0.300781 -0.9375 0.445312 -1.03125 0.625 -1.125 C 0.800781 -1.21875 0.984375 -1.363281 1.171875 -1.5625 C 1.359375 -1.769531 1.53125 -2.070312 1.6875 -2.46875 L 5.375 -11.78125 C 5.5 -12.09375 5.535156 -12.328125 5.484375 -12.484375 C 5.429688 -12.648438 5.34375 -12.78125 5.21875 -12.875 C 5.101562 -12.96875 4.988281 -13.0625 4.875 -13.15625 C 4.757812 -13.257812 4.703125 -13.398438 4.703125 -13.578125 C 4.703125 -13.898438 4.898438 -14.0625 5.296875 -14.0625 L 7.34375 -14.0625 C 7.65625 -14.0625 7.867188 -13.910156 7.984375 -13.609375 L 12.375 -2.515625 C 12.53125 -2.097656 12.691406 -1.785156 12.859375 -1.578125 C 13.035156 -1.378906 13.195312 -1.234375 13.34375 -1.140625 C 13.5 -1.046875 13.625 -0.957031 13.71875 -0.875 C 13.8125 -0.800781 13.859375 -0.675781 13.859375 -0.5 C 13.859375 -0.3125 13.78125 -0.179688 13.625 -0.109375 C 13.46875 -0.0351562 13.203125 0 12.828125 0 L 10.046875 0 C 9.453125 0 9.15625 -0.15625 9.15625 -0.46875 C 9.15625 -0.65625 9.210938 -0.796875 9.328125 -0.890625 C 9.453125 -0.984375 9.582031 -1.078125 9.71875 -1.171875 C 9.851562 -1.273438 9.941406 -1.425781 9.984375 -1.625 C 10.035156 -1.820312 9.976562 -2.117188 9.8125 -2.515625 L 9.4375 -3.515625 C 9.382812 -3.660156 9.320312 -3.773438 9.25 -3.859375 C 9.1875 -3.953125 9.0625 -4.015625 8.875 -4.046875 C 8.695312 -4.078125 8.421875 -4.09375 8.046875 -4.09375 C 7.671875 -4.101562 7.144531 -4.109375 6.46875 -4.109375 C 5.757812 -4.109375 5.207031 -4.101562 4.8125 -4.09375 C 4.425781 -4.09375 4.140625 -4.078125 3.953125 -4.046875 C 3.773438 -4.015625 3.65625 -3.957031 3.59375 -3.875 C 3.53125 -3.789062 3.46875 -3.675781 3.40625 -3.53125 Z M 6.484375 -5.1875 C 7.242188 -5.1875 7.78125 -5.191406 8.09375 -5.203125 C 8.414062 -5.210938 8.59375 -5.253906 8.625 -5.328125 C 8.65625 -5.398438 8.640625 -5.523438 8.578125 -5.703125 L 6.40625 -11.21875 L 4.25 -5.703125 C 4.1875 -5.523438 4.175781 -5.398438 4.21875 -5.328125 C 4.257812 -5.253906 4.445312 -5.210938 4.78125 -5.203125 C 5.113281 -5.191406 5.679688 -5.1875 6.484375 -5.1875 Z M 6.484375 -5.1875 "/></g></g></g><g fill="#000000" fill-opacity="1"><g transform="translate(247.231217, 332.05697)"><g><path d="M 18.46875 -14.0625 L 20.203125 -14.0625 C 20.484375 -14.0625 20.707031 -14.03125 20.875 -13.96875 C 21.039062 -13.90625 21.125 -13.785156 21.125 -13.609375 C 21.125 -13.441406 21.066406 -13.3125 20.953125 -13.21875 C 20.835938 -13.132812 20.691406 -13.039062 20.515625 -12.9375 C 20.347656 -12.84375 20.171875 -12.691406 19.984375 -12.484375 C 19.804688 -12.285156 19.644531 -11.984375 19.5 -11.578125 L 15.734375 -0.546875 C 15.703125 -0.410156 15.617188 -0.289062 15.484375 -0.1875 C 15.347656 -0.09375 15.113281 -0.0078125 14.78125 0.0625 C 14.425781 0.113281 14.160156 0.113281 13.984375 0.0625 C 13.816406 0.0195312 13.707031 -0.078125 13.65625 -0.234375 L 10.5625 -9.203125 L 7.625 -0.546875 C 7.570312 -0.410156 7.484375 -0.289062 7.359375 -0.1875 C 7.234375 -0.09375 7.003906 -0.0078125 6.671875 0.0625 C 6.023438 0.15625 5.65625 0.0546875 5.5625 -0.234375 L 1.59375 -11.5625 C 1.457031 -11.96875 1.300781 -12.269531 1.125 -12.46875 C 0.945312 -12.664062 0.785156 -12.816406 0.640625 -12.921875 C 0.492188 -13.023438 0.367188 -13.117188 0.265625 -13.203125 C 0.171875 -13.285156 0.125 -13.410156 0.125 -13.578125 C 0.125 -13.773438 0.203125 -13.90625 0.359375 -13.96875 C 0.523438 -14.03125 0.757812 -14.0625 1.0625 -14.0625 L 3.828125 -14.0625 C 4.097656 -14.0625 4.3125 -14.03125 4.46875 -13.96875 C 4.625 -13.90625 4.703125 -13.78125 4.703125 -13.59375 C 4.703125 -13.414062 4.644531 -13.28125 4.53125 -13.1875 C 4.425781 -13.09375 4.3125 -12.992188 4.1875 -12.890625 C 4.070312 -12.785156 3.992188 -12.628906 3.953125 -12.421875 C 3.910156 -12.222656 3.957031 -11.929688 4.09375 -11.546875 L 7.125 -2.53125 L 9.984375 -10.859375 L 9.765625 -11.546875 C 9.628906 -11.941406 9.476562 -12.238281 9.3125 -12.4375 C 9.144531 -12.644531 8.984375 -12.800781 8.828125 -12.90625 C 8.679688 -13.019531 8.554688 -13.117188 8.453125 -13.203125 C 8.359375 -13.285156 8.3125 -13.410156 8.3125 -13.578125 C 8.3125 -13.773438 8.390625 -13.90625 8.546875 -13.96875 C 8.710938 -14.03125 8.945312 -14.0625 9.25 -14.0625 L 12.03125 -14.0625 C 12.289062 -14.0625 12.5 -14.03125 12.65625 -13.96875 C 12.820312 -13.90625 12.90625 -13.78125 12.90625 -13.59375 C 12.90625 -13.414062 12.851562 -13.28125 12.75 -13.1875 C 12.644531 -13.09375 12.53125 -12.992188 12.40625 -12.890625 C 12.289062 -12.785156 12.207031 -12.628906 12.15625 -12.421875 C 12.113281 -12.222656 12.148438 -11.929688 12.265625 -11.546875 L 15.234375 -2.59375 L 18.203125 -11.5625 C 18.335938 -11.96875 18.390625 -12.273438 18.359375 -12.484375 C 18.328125 -12.691406 18.253906 -12.84375 18.140625 -12.9375 C 18.023438 -13.03125 17.914062 -13.117188 17.8125 -13.203125 C 17.707031 -13.285156 17.65625 -13.410156 17.65625 -13.578125 C 17.65625 -13.773438 17.734375 -13.90625 17.890625 -13.96875 C 18.046875 -14.03125 18.238281 -14.0625 18.46875 -14.0625 Z M 18.46875 -14.0625 "/></g></g></g><g fill="#000000" fill-opacity="1"><g transform="translate(273.249713, 332.05697)"><g><path d="M 3.40625 -3.53125 L 2.984375 -2.46875 C 2.828125 -2.070312 2.765625 -1.769531 2.796875 -1.5625 C 2.828125 -1.363281 2.894531 -1.21875 3 -1.125 C 3.113281 -1.03125 3.222656 -0.9375 3.328125 -0.84375 C 3.441406 -0.757812 3.5 -0.640625 3.5 -0.484375 C 3.5 -0.296875 3.414062 -0.164062 3.25 -0.09375 C 3.09375 -0.03125 2.898438 0 2.671875 0 L 0.9375 0 C 0.65625 0 0.429688 -0.03125 0.265625 -0.09375 C 0.0976562 -0.164062 0.015625 -0.289062 0.015625 -0.46875 C 0.015625 -0.632812 0.0703125 -0.757812 0.1875 -0.84375 C 0.300781 -0.9375 0.445312 -1.03125 0.625 -1.125 C 0.800781 -1.21875 0.984375 -1.363281 1.171875 -1.5625 C 1.359375 -1.769531 1.53125 -2.070312 1.6875 -2.46875 L 5.375 -11.78125 C 5.5 -12.09375 5.535156 -12.328125 5.484375 -12.484375 C 5.429688 -12.648438 5.34375 -12.78125 5.21875 -12.875 C 5.101562 -12.96875 4.988281 -13.0625 4.875 -13.15625 C 4.757812 -13.257812 4.703125 -13.398438 4.703125 -13.578125 C 4.703125 -13.898438 4.898438 -14.0625 5.296875 -14.0625 L 7.34375 -14.0625 C 7.65625 -14.0625 7.867188 -13.910156 7.984375 -13.609375 L 12.375 -2.515625 C 12.53125 -2.097656 12.691406 -1.785156 12.859375 -1.578125 C 13.035156 -1.378906 13.195312 -1.234375 13.34375 -1.140625 C 13.5 -1.046875 13.625 -0.957031 13.71875 -0.875 C 13.8125 -0.800781 13.859375 -0.675781 13.859375 -0.5 C 13.859375 -0.3125 13.78125 -0.179688 13.625 -0.109375 C 13.46875 -0.0351562 13.203125 0 12.828125 0 L 10.046875 0 C 9.453125 0 9.15625 -0.15625 9.15625 -0.46875 C 9.15625 -0.65625 9.210938 -0.796875 9.328125 -0.890625 C 9.453125 -0.984375 9.582031 -1.078125 9.71875 -1.171875 C 9.851562 -1.273438 9.941406 -1.425781 9.984375 -1.625 C 10.035156 -1.820312 9.976562 -2.117188 9.8125 -2.515625 L 9.4375 -3.515625 C 9.382812 -3.660156 9.320312 -3.773438 9.25 -3.859375 C 9.1875 -3.953125 9.0625 -4.015625 8.875 -4.046875 C 8.695312 -4.078125 8.421875 -4.09375 8.046875 -4.09375 C 7.671875 -4.101562 7.144531 -4.109375 6.46875 -4.109375 C 5.757812 -4.109375 5.207031 -4.101562 4.8125 -4.09375 C 4.425781 -4.09375 4.140625 -4.078125 3.953125 -4.046875 C 3.773438 -4.015625 3.65625 -3.957031 3.59375 -3.875 C 3.53125 -3.789062 3.46875 -3.675781 3.40625 -3.53125 Z M 6.484375 -5.1875 C 7.242188 -5.1875 7.78125 -5.191406 8.09375 -5.203125 C 8.414062 -5.210938 8.59375 -5.253906 8.625 -5.328125 C 8.65625 -5.398438 8.640625 -5.523438 8.578125 -5.703125 L 6.40625 -11.21875 L 4.25 -5.703125 C 4.1875 -5.523438 4.175781 -5.398438 4.21875 -5.328125 C 4.257812 -5.253906 4.445312 -5.210938 4.78125 -5.203125 C 5.113281 -5.191406 5.679688 -5.1875 6.484375 -5.1875 Z M 6.484375 -5.1875 "/></g></g></g><g fill="#000000" fill-opacity="1"><g transform="translate(292.282404, 332.05697)"><g><path d="M 1.78125 -14.0625 L 6.25 -14.0625 C 7.664062 -14.0625 8.867188 -13.863281 9.859375 -13.46875 C 10.859375 -13.070312 11.671875 -12.539062 12.296875 -11.875 C 12.929688 -11.207031 13.394531 -10.472656 13.6875 -9.671875 C 13.988281 -8.867188 14.140625 -8.066406 14.140625 -7.265625 C 14.140625 -6.304688 13.988281 -5.390625 13.6875 -4.515625 C 13.394531 -3.648438 12.953125 -2.875 12.359375 -2.1875 C 11.765625 -1.507812 11.003906 -0.972656 10.078125 -0.578125 C 9.148438 -0.191406 8.050781 0 6.78125 0 L 1.78125 0 C 1.40625 0 1.132812 -0.03125 0.96875 -0.09375 C 0.800781 -0.15625 0.71875 -0.285156 0.71875 -0.484375 C 0.71875 -0.710938 0.78125 -0.863281 0.90625 -0.9375 C 1.039062 -1.019531 1.191406 -1.109375 1.359375 -1.203125 C 1.523438 -1.304688 1.671875 -1.492188 1.796875 -1.765625 C 1.921875 -2.035156 1.984375 -2.472656 1.984375 -3.078125 L 1.984375 -10.984375 C 1.984375 -11.585938 1.921875 -12.019531 1.796875 -12.28125 C 1.671875 -12.550781 1.523438 -12.734375 1.359375 -12.828125 C 1.191406 -12.929688 1.039062 -13.023438 0.90625 -13.109375 C 0.78125 -13.191406 0.71875 -13.347656 0.71875 -13.578125 C 0.71875 -13.773438 0.800781 -13.90625 0.96875 -13.96875 C 1.132812 -14.03125 1.40625 -14.0625 1.78125 -14.0625 Z M 6.546875 -1.046875 C 7.859375 -1.046875 8.882812 -1.28125 9.625 -1.75 C 10.363281 -2.226562 10.890625 -2.863281 11.203125 -3.65625 C 11.515625 -4.445312 11.671875 -5.300781 11.671875 -6.21875 C 11.671875 -7.507812 11.425781 -8.671875 10.9375 -9.703125 C 10.445312 -10.734375 9.742188 -11.546875 8.828125 -12.140625 C 7.921875 -12.742188 6.835938 -13.046875 5.578125 -13.046875 C 5.097656 -13.046875 4.765625 -12.992188 4.578125 -12.890625 C 4.398438 -12.785156 4.3125 -12.546875 4.3125 -12.171875 L 4.3125 -2.25 C 4.3125 -1.976562 4.363281 -1.753906 4.46875 -1.578125 C 4.582031 -1.398438 4.800781 -1.265625 5.125 -1.171875 C 5.445312 -1.085938 5.921875 -1.046875 6.546875 -1.046875 Z M 6.546875 -1.046875 "/></g></g></g><g fill="#000000" fill-opacity="1"><g transform="translate(134.268365, 354.12777)"><g><path d="M 4.03125 0.109375 C 3.300781 0.109375 2.664062 -0.0390625 2.125 -0.34375 C 1.582031 -0.644531 1.160156 -1.066406 0.859375 -1.609375 C 0.554688 -2.160156 0.40625 -2.800781 0.40625 -3.53125 C 0.40625 -4.09375 0.503906 -4.613281 0.703125 -5.09375 C 0.898438 -5.570312 1.171875 -5.988281 1.515625 -6.34375 C 1.859375 -6.707031 2.257812 -6.992188 2.71875 -7.203125 C 3.1875 -7.410156 3.691406 -7.515625 4.234375 -7.515625 C 4.546875 -7.515625 4.800781 -7.484375 5 -7.421875 C 5.207031 -7.367188 5.378906 -7.34375 5.515625 -7.34375 C 5.640625 -7.34375 5.734375 -7.363281 5.796875 -7.40625 C 5.867188 -7.457031 5.960938 -7.484375 6.078125 -7.484375 C 6.171875 -7.484375 6.242188 -7.445312 6.296875 -7.375 C 6.359375 -7.3125 6.425781 -7.164062 6.5 -6.9375 C 6.539062 -6.757812 6.585938 -6.5625 6.640625 -6.34375 C 6.703125 -6.125 6.753906 -5.859375 6.796875 -5.546875 C 6.816406 -5.421875 6.8125 -5.320312 6.78125 -5.25 C 6.757812 -5.175781 6.695312 -5.132812 6.59375 -5.125 C 6.5 -5.113281 6.421875 -5.144531 6.359375 -5.21875 C 6.296875 -5.300781 6.210938 -5.410156 6.109375 -5.546875 C 5.878906 -5.898438 5.597656 -6.207031 5.265625 -6.46875 C 4.941406 -6.726562 4.523438 -6.859375 4.015625 -6.859375 C 3.535156 -6.859375 3.117188 -6.734375 2.765625 -6.484375 C 2.421875 -6.234375 2.15625 -5.898438 1.96875 -5.484375 C 1.78125 -5.066406 1.6875 -4.609375 1.6875 -4.109375 C 1.6875 -3.472656 1.800781 -2.894531 2.03125 -2.375 C 2.257812 -1.863281 2.578125 -1.457031 2.984375 -1.15625 C 3.398438 -0.851562 3.890625 -0.703125 4.453125 -0.703125 C 4.941406 -0.703125 5.351562 -0.796875 5.6875 -0.984375 C 6.03125 -1.171875 6.335938 -1.40625 6.609375 -1.6875 C 6.691406 -1.769531 6.765625 -1.800781 6.828125 -1.78125 C 6.898438 -1.757812 6.945312 -1.707031 6.96875 -1.625 C 7 -1.550781 6.984375 -1.457031 6.921875 -1.34375 C 6.804688 -1.132812 6.617188 -0.914062 6.359375 -0.6875 C 6.097656 -0.46875 5.769531 -0.28125 5.375 -0.125 C 4.988281 0.03125 4.539062 0.109375 4.03125 0.109375 Z M 4.03125 0.109375 "/></g></g></g><g fill="#000000" fill-opacity="1"><g transform="translate(144.205989, 354.12777)"><g><path d="M 3.890625 0.109375 C 3.203125 0.109375 2.597656 -0.0390625 2.078125 -0.34375 C 1.554688 -0.644531 1.144531 -1.0625 0.84375 -1.59375 C 0.550781 -2.125 0.40625 -2.734375 0.40625 -3.421875 C 0.40625 -3.984375 0.503906 -4.507812 0.703125 -5 C 0.898438 -5.5 1.171875 -5.9375 1.515625 -6.3125 C 1.867188 -6.6875 2.285156 -6.976562 2.765625 -7.1875 C 3.242188 -7.40625 3.769531 -7.515625 4.34375 -7.515625 C 5.039062 -7.515625 5.644531 -7.351562 6.15625 -7.03125 C 6.675781 -6.71875 7.078125 -6.289062 7.359375 -5.75 C 7.648438 -5.21875 7.796875 -4.613281 7.796875 -3.9375 C 7.796875 -3.351562 7.695312 -2.816406 7.5 -2.328125 C 7.3125 -1.835938 7.046875 -1.410156 6.703125 -1.046875 C 6.359375 -0.679688 5.945312 -0.394531 5.46875 -0.1875 C 5 0.0078125 4.472656 0.109375 3.890625 0.109375 Z M 4.390625 -0.609375 C 4.878906 -0.609375 5.285156 -0.726562 5.609375 -0.96875 C 5.941406 -1.21875 6.1875 -1.539062 6.34375 -1.9375 C 6.5 -2.332031 6.578125 -2.765625 6.578125 -3.234375 C 6.578125 -3.703125 6.515625 -4.148438 6.390625 -4.578125 C 6.265625 -5.003906 6.082031 -5.390625 5.84375 -5.734375 C 5.613281 -6.078125 5.332031 -6.347656 5 -6.546875 C 4.664062 -6.753906 4.289062 -6.859375 3.875 -6.859375 C 3.382812 -6.859375 2.972656 -6.734375 2.640625 -6.484375 C 2.304688 -6.234375 2.054688 -5.910156 1.890625 -5.515625 C 1.722656 -5.117188 1.640625 -4.707031 1.640625 -4.28125 C 1.640625 -3.789062 1.703125 -3.328125 1.828125 -2.890625 C 1.953125 -2.453125 2.132812 -2.0625 2.375 -1.71875 C 2.613281 -1.375 2.898438 -1.101562 3.234375 -0.90625 C 3.578125 -0.707031 3.960938 -0.609375 4.390625 -0.609375 Z M 4.390625 -0.609375 "/></g></g></g><g fill="#000000" fill-opacity="1"><g transform="translate(155.053669, 354.12777)"><g><path d="M 6.375 -7.40625 L 7.203125 -7.40625 C 7.367188 -7.40625 7.488281 -7.382812 7.5625 -7.34375 C 7.644531 -7.3125 7.6875 -7.25 7.6875 -7.15625 C 7.6875 -7.070312 7.65625 -7.003906 7.59375 -6.953125 C 7.539062 -6.898438 7.472656 -6.84375 7.390625 -6.78125 C 7.316406 -6.726562 7.253906 -6.648438 7.203125 -6.546875 C 7.148438 -6.453125 7.125 -6.304688 7.125 -6.109375 L 7.125 -0.375 C 7.125 -0.238281 7.09375 -0.140625 7.03125 -0.078125 C 6.976562 -0.0234375 6.898438 0 6.796875 0 C 6.691406 0 6.613281 -0.03125 6.5625 -0.09375 C 6.507812 -0.15625 6.484375 -0.21875 6.484375 -0.28125 C 6.484375 -0.519531 6.382812 -0.75 6.1875 -0.96875 L 1.640625 -5.765625 L 1.65625 -1.296875 C 1.65625 -1.097656 1.679688 -0.945312 1.734375 -0.84375 C 1.796875 -0.75 1.863281 -0.671875 1.9375 -0.609375 C 2.019531 -0.554688 2.085938 -0.503906 2.140625 -0.453125 C 2.203125 -0.410156 2.234375 -0.34375 2.234375 -0.25 C 2.234375 -0.15625 2.191406 -0.0859375 2.109375 -0.046875 C 2.023438 -0.015625 1.90625 0 1.75 0 L 0.921875 0 C 0.597656 0 0.4375 -0.0820312 0.4375 -0.25 C 0.4375 -0.332031 0.460938 -0.398438 0.515625 -0.453125 C 0.578125 -0.503906 0.644531 -0.554688 0.71875 -0.609375 C 0.789062 -0.671875 0.851562 -0.75 0.90625 -0.84375 C 0.96875 -0.945312 1 -1.097656 1 -1.296875 L 1 -5.78125 C 1 -6.101562 0.960938 -6.332031 0.890625 -6.46875 C 0.828125 -6.613281 0.753906 -6.710938 0.671875 -6.765625 C 0.585938 -6.816406 0.507812 -6.863281 0.4375 -6.90625 C 0.375 -6.945312 0.34375 -7.03125 0.34375 -7.15625 C 0.34375 -7.257812 0.382812 -7.328125 0.46875 -7.359375 C 0.5625 -7.390625 0.707031 -7.40625 0.90625 -7.40625 L 1.5625 -7.40625 C 1.65625 -7.40625 1.734375 -7.382812 1.796875 -7.34375 C 1.859375 -7.3125 1.921875 -7.257812 1.984375 -7.1875 L 6.484375 -2.40625 L 6.46875 -6.109375 C 6.46875 -6.304688 6.4375 -6.453125 6.375 -6.546875 C 6.320312 -6.648438 6.257812 -6.726562 6.1875 -6.78125 C 6.113281 -6.84375 6.046875 -6.894531 5.984375 -6.9375 C 5.929688 -6.988281 5.90625 -7.0625 5.90625 -7.15625 C 5.90625 -7.25 5.941406 -7.3125 6.015625 -7.34375 C 6.097656 -7.382812 6.21875 -7.40625 6.375 -7.40625 Z M 6.375 -7.40625 "/></g></g></g><g fill="#000000" fill-opacity="1"><g transform="translate(165.689702, 354.12777)"><g><path d="M 3.1875 0.109375 C 2.800781 0.109375 2.488281 0.078125 2.25 0.015625 C 2.019531 -0.0351562 1.832031 -0.0625 1.6875 -0.0625 C 1.539062 -0.0625 1.4375 -0.0351562 1.375 0.015625 C 1.320312 0.0664062 1.25 0.09375 1.15625 0.09375 C 1.0625 0.09375 0.976562 0.0546875 0.90625 -0.015625 C 0.84375 -0.0976562 0.796875 -0.25 0.765625 -0.46875 C 0.722656 -0.6875 0.679688 -0.914062 0.640625 -1.15625 C 0.609375 -1.40625 0.578125 -1.679688 0.546875 -1.984375 C 0.546875 -2.109375 0.554688 -2.207031 0.578125 -2.28125 C 0.597656 -2.363281 0.65625 -2.40625 0.75 -2.40625 C 0.832031 -2.40625 0.90625 -2.375 0.96875 -2.3125 C 1.03125 -2.25 1.101562 -2.148438 1.1875 -2.015625 C 1.289062 -1.796875 1.425781 -1.566406 1.59375 -1.328125 C 1.769531 -1.097656 2 -0.898438 2.28125 -0.734375 C 2.5625 -0.578125 2.90625 -0.5 3.3125 -0.5 C 3.757812 -0.5 4.085938 -0.613281 4.296875 -0.84375 C 4.515625 -1.070312 4.628906 -1.332031 4.640625 -1.625 C 4.648438 -1.894531 4.566406 -2.125 4.390625 -2.3125 C 4.210938 -2.5 3.984375 -2.664062 3.703125 -2.8125 C 3.429688 -2.957031 3.144531 -3.097656 2.84375 -3.234375 C 2.5625 -3.378906 2.289062 -3.515625 2.03125 -3.640625 C 1.78125 -3.773438 1.550781 -3.925781 1.34375 -4.09375 C 1.132812 -4.257812 0.972656 -4.453125 0.859375 -4.671875 C 0.742188 -4.898438 0.6875 -5.171875 0.6875 -5.484375 C 0.6875 -5.847656 0.785156 -6.179688 0.984375 -6.484375 C 1.191406 -6.785156 1.488281 -7.023438 1.875 -7.203125 C 2.257812 -7.390625 2.71875 -7.484375 3.25 -7.484375 C 3.5 -7.484375 3.722656 -7.460938 3.921875 -7.421875 C 4.117188 -7.378906 4.285156 -7.359375 4.421875 -7.359375 C 4.546875 -7.359375 4.632812 -7.378906 4.6875 -7.421875 C 4.75 -7.460938 4.828125 -7.484375 4.921875 -7.484375 C 5.015625 -7.484375 5.085938 -7.445312 5.140625 -7.375 C 5.203125 -7.3125 5.257812 -7.164062 5.3125 -6.9375 C 5.34375 -6.757812 5.378906 -6.570312 5.421875 -6.375 C 5.460938 -6.175781 5.5 -5.953125 5.53125 -5.703125 C 5.539062 -5.578125 5.53125 -5.476562 5.5 -5.40625 C 5.476562 -5.332031 5.421875 -5.296875 5.328125 -5.296875 C 5.191406 -5.296875 5.035156 -5.425781 4.859375 -5.6875 C 4.753906 -5.851562 4.613281 -6.03125 4.4375 -6.21875 C 4.257812 -6.414062 4.054688 -6.582031 3.828125 -6.71875 C 3.609375 -6.851562 3.351562 -6.921875 3.0625 -6.921875 C 2.664062 -6.921875 2.363281 -6.820312 2.15625 -6.625 C 1.957031 -6.4375 1.859375 -6.191406 1.859375 -5.890625 C 1.859375 -5.640625 1.929688 -5.429688 2.078125 -5.265625 C 2.222656 -5.097656 2.425781 -4.941406 2.6875 -4.796875 C 2.957031 -4.648438 3.265625 -4.488281 3.609375 -4.3125 C 3.898438 -4.164062 4.179688 -4.023438 4.453125 -3.890625 C 4.722656 -3.753906 4.960938 -3.609375 5.171875 -3.453125 C 5.390625 -3.296875 5.5625 -3.109375 5.6875 -2.890625 C 5.820312 -2.679688 5.894531 -2.421875 5.90625 -2.109375 C 5.914062 -1.648438 5.789062 -1.253906 5.53125 -0.921875 C 5.28125 -0.597656 4.945312 -0.347656 4.53125 -0.171875 C 4.113281 0.00390625 3.664062 0.0976562 3.1875 0.109375 Z M 3.1875 0.109375 "/></g></g></g><g fill="#000000" fill-opacity="1"><g transform="translate(174.632618, 354.12777)"><g><path d="M 3.90625 0.109375 C 2.96875 0.109375 2.25 -0.160156 1.75 -0.703125 C 1.25 -1.253906 1 -2.046875 1 -3.078125 L 1 -5.75 C 1 -6.050781 0.96875 -6.273438 0.90625 -6.421875 C 0.84375 -6.566406 0.765625 -6.671875 0.671875 -6.734375 C 0.585938 -6.796875 0.515625 -6.847656 0.453125 -6.890625 C 0.390625 -6.941406 0.359375 -7.023438 0.359375 -7.140625 C 0.359375 -7.234375 0.398438 -7.296875 0.484375 -7.328125 C 0.566406 -7.367188 0.710938 -7.390625 0.921875 -7.390625 L 2.34375 -7.390625 C 2.707031 -7.390625 2.890625 -7.304688 2.890625 -7.140625 C 2.890625 -7.023438 2.859375 -6.941406 2.796875 -6.890625 C 2.734375 -6.847656 2.65625 -6.796875 2.5625 -6.734375 C 2.476562 -6.671875 2.398438 -6.566406 2.328125 -6.421875 C 2.265625 -6.273438 2.234375 -6.050781 2.234375 -5.75 L 2.234375 -2.859375 C 2.234375 -2.117188 2.40625 -1.554688 2.75 -1.171875 C 3.09375 -0.785156 3.578125 -0.59375 4.203125 -0.59375 C 4.835938 -0.59375 5.320312 -0.8125 5.65625 -1.25 C 6 -1.695312 6.171875 -2.269531 6.171875 -2.96875 L 6.140625 -6.109375 C 6.140625 -6.304688 6.113281 -6.453125 6.0625 -6.546875 C 6.007812 -6.648438 5.941406 -6.726562 5.859375 -6.78125 C 5.785156 -6.84375 5.71875 -6.894531 5.65625 -6.9375 C 5.601562 -6.988281 5.578125 -7.0625 5.578125 -7.15625 C 5.578125 -7.25 5.613281 -7.3125 5.6875 -7.34375 C 5.769531 -7.382812 5.898438 -7.40625 6.078125 -7.40625 L 6.890625 -7.40625 C 7.054688 -7.40625 7.175781 -7.382812 7.25 -7.34375 C 7.332031 -7.3125 7.375 -7.25 7.375 -7.15625 C 7.375 -7.070312 7.34375 -7.003906 7.28125 -6.953125 C 7.226562 -6.898438 7.160156 -6.84375 7.078125 -6.78125 C 7.003906 -6.726562 6.9375 -6.648438 6.875 -6.546875 C 6.820312 -6.453125 6.796875 -6.304688 6.796875 -6.109375 L 6.796875 -3.15625 C 6.796875 -2.113281 6.5625 -1.304688 6.09375 -0.734375 C 5.625 -0.171875 4.894531 0.109375 3.90625 0.109375 Z M 3.90625 0.109375 "/></g></g></g><g fill="#000000" fill-opacity="1"><g transform="translate(184.919448, 354.12777)"><g><path d="M 5.515625 -2.046875 C 5.609375 -2.023438 5.664062 -1.976562 5.6875 -1.90625 C 5.707031 -1.832031 5.71875 -1.738281 5.71875 -1.625 C 5.695312 -1.34375 5.671875 -1.109375 5.640625 -0.921875 C 5.617188 -0.734375 5.585938 -0.5625 5.546875 -0.40625 C 5.503906 -0.269531 5.429688 -0.164062 5.328125 -0.09375 C 5.222656 -0.03125 5.003906 0 4.671875 0 L 0.9375 0 C 0.738281 0 0.59375 -0.015625 0.5 -0.046875 C 0.414062 -0.078125 0.375 -0.144531 0.375 -0.25 C 0.375 -0.375 0.40625 -0.457031 0.46875 -0.5 C 0.539062 -0.539062 0.617188 -0.585938 0.703125 -0.640625 C 0.796875 -0.691406 0.875 -0.785156 0.9375 -0.921875 C 1.007812 -1.066406 1.046875 -1.300781 1.046875 -1.625 L 1.046875 -5.75 C 1.046875 -6.0625 1.015625 -6.289062 0.953125 -6.4375 C 0.890625 -6.582031 0.8125 -6.679688 0.71875 -6.734375 C 0.632812 -6.796875 0.5625 -6.851562 0.5 -6.90625 C 0.4375 -6.957031 0.40625 -7.039062 0.40625 -7.15625 C 0.40625 -7.25 0.445312 -7.3125 0.53125 -7.34375 C 0.613281 -7.382812 0.757812 -7.40625 0.96875 -7.40625 L 2.375 -7.40625 C 2.75 -7.40625 2.9375 -7.320312 2.9375 -7.15625 C 2.9375 -7.039062 2.898438 -6.957031 2.828125 -6.90625 C 2.765625 -6.851562 2.6875 -6.796875 2.59375 -6.734375 C 2.507812 -6.679688 2.4375 -6.582031 2.375 -6.4375 C 2.3125 -6.289062 2.28125 -6.0625 2.28125 -5.75 L 2.28125 -1.078125 C 2.28125 -0.898438 2.332031 -0.769531 2.4375 -0.6875 C 2.550781 -0.613281 2.789062 -0.578125 3.15625 -0.578125 L 3.71875 -0.578125 C 4 -0.578125 4.21875 -0.613281 4.375 -0.6875 C 4.53125 -0.769531 4.65625 -0.890625 4.75 -1.046875 C 4.851562 -1.203125 4.957031 -1.394531 5.0625 -1.625 C 5.144531 -1.8125 5.222656 -1.929688 5.296875 -1.984375 C 5.367188 -2.035156 5.441406 -2.054688 5.515625 -2.046875 Z M 5.515625 -2.046875 "/></g></g></g><g fill="#000000" fill-opacity="1"><g transform="translate(193.491988, 354.12777)"><g><path d="M 4.015625 -6.328125 L 4.015625 -1.65625 C 4.015625 -1.34375 4.046875 -1.113281 4.109375 -0.96875 C 4.171875 -0.820312 4.242188 -0.71875 4.328125 -0.65625 C 4.421875 -0.601562 4.5 -0.550781 4.5625 -0.5 C 4.625 -0.445312 4.65625 -0.363281 4.65625 -0.25 C 4.65625 -0.15625 4.613281 -0.0859375 4.53125 -0.046875 C 4.445312 -0.015625 4.304688 0 4.109375 0 L 2.671875 0 C 2.304688 0 2.125 -0.0820312 2.125 -0.25 C 2.125 -0.363281 2.15625 -0.445312 2.21875 -0.5 C 2.289062 -0.550781 2.367188 -0.601562 2.453125 -0.65625 C 2.535156 -0.71875 2.609375 -0.820312 2.671875 -0.96875 C 2.742188 -1.113281 2.78125 -1.34375 2.78125 -1.65625 L 2.78125 -6.3125 C 2.78125 -6.476562 2.738281 -6.601562 2.65625 -6.6875 C 2.582031 -6.769531 2.453125 -6.8125 2.265625 -6.8125 C 2.015625 -6.8125 1.816406 -6.773438 1.671875 -6.703125 C 1.523438 -6.628906 1.398438 -6.515625 1.296875 -6.359375 C 1.191406 -6.210938 1.082031 -6.019531 0.96875 -5.78125 C 0.820312 -5.507812 0.6875 -5.375 0.5625 -5.375 C 0.457031 -5.375 0.390625 -5.410156 0.359375 -5.484375 C 0.328125 -5.566406 0.316406 -5.664062 0.328125 -5.78125 C 0.335938 -6.0625 0.351562 -6.296875 0.375 -6.484375 C 0.394531 -6.671875 0.425781 -6.84375 0.46875 -7 C 0.507812 -7.144531 0.582031 -7.25 0.6875 -7.3125 C 0.800781 -7.375 1.019531 -7.40625 1.34375 -7.40625 L 5.453125 -7.421875 C 5.773438 -7.421875 5.988281 -7.382812 6.09375 -7.3125 C 6.207031 -7.25 6.285156 -7.144531 6.328125 -7 C 6.398438 -6.726562 6.445312 -6.328125 6.46875 -5.796875 C 6.476562 -5.679688 6.46875 -5.582031 6.4375 -5.5 C 6.40625 -5.425781 6.335938 -5.390625 6.234375 -5.390625 C 6.109375 -5.390625 5.976562 -5.519531 5.84375 -5.78125 C 5.71875 -6.019531 5.601562 -6.210938 5.5 -6.359375 C 5.40625 -6.515625 5.285156 -6.628906 5.140625 -6.703125 C 4.992188 -6.785156 4.789062 -6.828125 4.53125 -6.828125 C 4.351562 -6.828125 4.222656 -6.785156 4.140625 -6.703125 C 4.054688 -6.617188 4.015625 -6.492188 4.015625 -6.328125 Z M 4.015625 -6.328125 "/></g></g></g><g fill="#000000" fill-opacity="1"><g transform="translate(202.911093, 354.12777)"><g><path d="M 1.796875 -1.859375 L 1.578125 -1.296875 C 1.492188 -1.085938 1.457031 -0.929688 1.46875 -0.828125 C 1.488281 -0.722656 1.523438 -0.644531 1.578125 -0.59375 C 1.640625 -0.539062 1.695312 -0.488281 1.75 -0.4375 C 1.8125 -0.394531 1.84375 -0.332031 1.84375 -0.25 C 1.84375 -0.15625 1.800781 -0.0859375 1.71875 -0.046875 C 1.632812 -0.015625 1.53125 0 1.40625 0 L 0.5 0 C 0.351562 0 0.234375 -0.015625 0.140625 -0.046875 C 0.0546875 -0.0859375 0.015625 -0.15625 0.015625 -0.25 C 0.015625 -0.332031 0.0390625 -0.394531 0.09375 -0.4375 C 0.15625 -0.488281 0.234375 -0.539062 0.328125 -0.59375 C 0.421875 -0.644531 0.515625 -0.722656 0.609375 -0.828125 C 0.710938 -0.929688 0.804688 -1.085938 0.890625 -1.296875 L 2.828125 -6.203125 C 2.898438 -6.367188 2.921875 -6.492188 2.890625 -6.578125 C 2.859375 -6.660156 2.8125 -6.726562 2.75 -6.78125 C 2.6875 -6.832031 2.625 -6.882812 2.5625 -6.9375 C 2.5 -6.988281 2.46875 -7.0625 2.46875 -7.15625 C 2.46875 -7.320312 2.578125 -7.40625 2.796875 -7.40625 L 3.875 -7.40625 C 4.03125 -7.40625 4.140625 -7.328125 4.203125 -7.171875 L 6.515625 -1.328125 C 6.597656 -1.109375 6.6875 -0.941406 6.78125 -0.828125 C 6.875 -0.722656 6.957031 -0.644531 7.03125 -0.59375 C 7.113281 -0.550781 7.175781 -0.507812 7.21875 -0.46875 C 7.269531 -0.425781 7.296875 -0.359375 7.296875 -0.265625 C 7.296875 -0.160156 7.253906 -0.0859375 7.171875 -0.046875 C 7.097656 -0.015625 6.960938 0 6.765625 0 L 5.296875 0 C 4.984375 0 4.828125 -0.0820312 4.828125 -0.25 C 4.828125 -0.34375 4.859375 -0.414062 4.921875 -0.46875 C 4.984375 -0.519531 5.046875 -0.570312 5.109375 -0.625 C 5.179688 -0.675781 5.226562 -0.753906 5.25 -0.859375 C 5.28125 -0.960938 5.253906 -1.117188 5.171875 -1.328125 L 4.96875 -1.84375 C 4.9375 -1.925781 4.90625 -1.988281 4.875 -2.03125 C 4.84375 -2.082031 4.773438 -2.113281 4.671875 -2.125 C 4.578125 -2.144531 4.429688 -2.15625 4.234375 -2.15625 C 4.046875 -2.164062 3.769531 -2.171875 3.40625 -2.171875 C 3.03125 -2.171875 2.738281 -2.164062 2.53125 -2.15625 C 2.332031 -2.15625 2.1875 -2.144531 2.09375 -2.125 C 2 -2.113281 1.929688 -2.085938 1.890625 -2.046875 C 1.859375 -2.003906 1.828125 -1.941406 1.796875 -1.859375 Z M 3.421875 -2.734375 C 3.816406 -2.734375 4.097656 -2.734375 4.265625 -2.734375 C 4.429688 -2.742188 4.519531 -2.765625 4.53125 -2.796875 C 4.550781 -2.835938 4.546875 -2.90625 4.515625 -3 L 3.375 -5.90625 L 2.25 -3 C 2.207031 -2.90625 2.195312 -2.835938 2.21875 -2.796875 C 2.238281 -2.765625 2.335938 -2.742188 2.515625 -2.734375 C 2.691406 -2.734375 2.992188 -2.734375 3.421875 -2.734375 Z M 3.421875 -2.734375 "/></g></g></g><g fill="#000000" fill-opacity="1"><g transform="translate(212.943956, 354.12777)"><g><path d="M 6.375 -7.40625 L 7.203125 -7.40625 C 7.367188 -7.40625 7.488281 -7.382812 7.5625 -7.34375 C 7.644531 -7.3125 7.6875 -7.25 7.6875 -7.15625 C 7.6875 -7.070312 7.65625 -7.003906 7.59375 -6.953125 C 7.539062 -6.898438 7.472656 -6.84375 7.390625 -6.78125 C 7.316406 -6.726562 7.253906 -6.648438 7.203125 -6.546875 C 7.148438 -6.453125 7.125 -6.304688 7.125 -6.109375 L 7.125 -0.375 C 7.125 -0.238281 7.09375 -0.140625 7.03125 -0.078125 C 6.976562 -0.0234375 6.898438 0 6.796875 0 C 6.691406 0 6.613281 -0.03125 6.5625 -0.09375 C 6.507812 -0.15625 6.484375 -0.21875 6.484375 -0.28125 C 6.484375 -0.519531 6.382812 -0.75 6.1875 -0.96875 L 1.640625 -5.765625 L 1.65625 -1.296875 C 1.65625 -1.097656 1.679688 -0.945312 1.734375 -0.84375 C 1.796875 -0.75 1.863281 -0.671875 1.9375 -0.609375 C 2.019531 -0.554688 2.085938 -0.503906 2.140625 -0.453125 C 2.203125 -0.410156 2.234375 -0.34375 2.234375 -0.25 C 2.234375 -0.15625 2.191406 -0.0859375 2.109375 -0.046875 C 2.023438 -0.015625 1.90625 0 1.75 0 L 0.921875 0 C 0.597656 0 0.4375 -0.0820312 0.4375 -0.25 C 0.4375 -0.332031 0.460938 -0.398438 0.515625 -0.453125 C 0.578125 -0.503906 0.644531 -0.554688 0.71875 -0.609375 C 0.789062 -0.671875 0.851562 -0.75 0.90625 -0.84375 C 0.96875 -0.945312 1 -1.097656 1 -1.296875 L 1 -5.78125 C 1 -6.101562 0.960938 -6.332031 0.890625 -6.46875 C 0.828125 -6.613281 0.753906 -6.710938 0.671875 -6.765625 C 0.585938 -6.816406 0.507812 -6.863281 0.4375 -6.90625 C 0.375 -6.945312 0.34375 -7.03125 0.34375 -7.15625 C 0.34375 -7.257812 0.382812 -7.328125 0.46875 -7.359375 C 0.5625 -7.390625 0.707031 -7.40625 0.90625 -7.40625 L 1.5625 -7.40625 C 1.65625 -7.40625 1.734375 -7.382812 1.796875 -7.34375 C 1.859375 -7.3125 1.921875 -7.257812 1.984375 -7.1875 L 6.484375 -2.40625 L 6.46875 -6.109375 C 6.46875 -6.304688 6.4375 -6.453125 6.375 -6.546875 C 6.320312 -6.648438 6.257812 -6.726562 6.1875 -6.78125 C 6.113281 -6.84375 6.046875 -6.894531 5.984375 -6.9375 C 5.929688 -6.988281 5.90625 -7.0625 5.90625 -7.15625 C 5.90625 -7.25 5.941406 -7.3125 6.015625 -7.34375 C 6.097656 -7.382812 6.21875 -7.40625 6.375 -7.40625 Z M 6.375 -7.40625 "/></g></g></g><g fill="#000000" fill-opacity="1"><g transform="translate(223.579991, 354.12777)"><g><path d="M 4.03125 0.109375 C 3.300781 0.109375 2.664062 -0.0390625 2.125 -0.34375 C 1.582031 -0.644531 1.160156 -1.066406 0.859375 -1.609375 C 0.554688 -2.160156 0.40625 -2.800781 0.40625 -3.53125 C 0.40625 -4.09375 0.503906 -4.613281 0.703125 -5.09375 C 0.898438 -5.570312 1.171875 -5.988281 1.515625 -6.34375 C 1.859375 -6.707031 2.257812 -6.992188 2.71875 -7.203125 C 3.1875 -7.410156 3.691406 -7.515625 4.234375 -7.515625 C 4.546875 -7.515625 4.800781 -7.484375 5 -7.421875 C 5.207031 -7.367188 5.378906 -7.34375 5.515625 -7.34375 C 5.640625 -7.34375 5.734375 -7.363281 5.796875 -7.40625 C 5.867188 -7.457031 5.960938 -7.484375 6.078125 -7.484375 C 6.171875 -7.484375 6.242188 -7.445312 6.296875 -7.375 C 6.359375 -7.3125 6.425781 -7.164062 6.5 -6.9375 C 6.539062 -6.757812 6.585938 -6.5625 6.640625 -6.34375 C 6.703125 -6.125 6.753906 -5.859375 6.796875 -5.546875 C 6.816406 -5.421875 6.8125 -5.320312 6.78125 -5.25 C 6.757812 -5.175781 6.695312 -5.132812 6.59375 -5.125 C 6.5 -5.113281 6.421875 -5.144531 6.359375 -5.21875 C 6.296875 -5.300781 6.210938 -5.410156 6.109375 -5.546875 C 5.878906 -5.898438 5.597656 -6.207031 5.265625 -6.46875 C 4.941406 -6.726562 4.523438 -6.859375 4.015625 -6.859375 C 3.535156 -6.859375 3.117188 -6.734375 2.765625 -6.484375 C 2.421875 -6.234375 2.15625 -5.898438 1.96875 -5.484375 C 1.78125 -5.066406 1.6875 -4.609375 1.6875 -4.109375 C 1.6875 -3.472656 1.800781 -2.894531 2.03125 -2.375 C 2.257812 -1.863281 2.578125 -1.457031 2.984375 -1.15625 C 3.398438 -0.851562 3.890625 -0.703125 4.453125 -0.703125 C 4.941406 -0.703125 5.351562 -0.796875 5.6875 -0.984375 C 6.03125 -1.171875 6.335938 -1.40625 6.609375 -1.6875 C 6.691406 -1.769531 6.765625 -1.800781 6.828125 -1.78125 C 6.898438 -1.757812 6.945312 -1.707031 6.96875 -1.625 C 7 -1.550781 6.984375 -1.457031 6.921875 -1.34375 C 6.804688 -1.132812 6.617188 -0.914062 6.359375 -0.6875 C 6.097656 -0.46875 5.769531 -0.28125 5.375 -0.125 C 4.988281 0.03125 4.539062 0.109375 4.03125 0.109375 Z M 4.03125 0.109375 "/></g></g></g><g fill="#000000" fill-opacity="1"><g transform="translate(233.517611, 354.12777)"><g><path d="M 5.71875 -7.40625 L 6.671875 -7.40625 C 6.816406 -7.40625 6.929688 -7.390625 7.015625 -7.359375 C 7.109375 -7.328125 7.15625 -7.257812 7.15625 -7.15625 C 7.15625 -7.070312 7.125 -7.003906 7.0625 -6.953125 C 7 -6.910156 6.914062 -6.867188 6.8125 -6.828125 C 6.707031 -6.785156 6.59375 -6.71875 6.46875 -6.625 C 6.351562 -6.53125 6.234375 -6.390625 6.109375 -6.203125 L 4.25 -3.28125 L 4.25 -1.65625 C 4.25 -1.34375 4.28125 -1.113281 4.34375 -0.96875 C 4.40625 -0.820312 4.476562 -0.71875 4.5625 -0.65625 C 4.65625 -0.601562 4.734375 -0.550781 4.796875 -0.5 C 4.859375 -0.445312 4.890625 -0.363281 4.890625 -0.25 C 4.890625 -0.15625 4.847656 -0.0859375 4.765625 -0.046875 C 4.679688 -0.015625 4.539062 0 4.34375 0 L 2.90625 0 C 2.539062 0 2.359375 -0.0820312 2.359375 -0.25 C 2.359375 -0.363281 2.390625 -0.445312 2.453125 -0.5 C 2.523438 -0.550781 2.601562 -0.601562 2.6875 -0.65625 C 2.769531 -0.71875 2.84375 -0.820312 2.90625 -0.96875 C 2.976562 -1.113281 3.015625 -1.34375 3.015625 -1.65625 L 3.015625 -3.28125 L 1.03125 -6.171875 C 0.90625 -6.359375 0.78125 -6.5 0.65625 -6.59375 C 0.539062 -6.6875 0.4375 -6.757812 0.34375 -6.8125 C 0.257812 -6.863281 0.191406 -6.910156 0.140625 -6.953125 C 0.0859375 -7.003906 0.0625 -7.070312 0.0625 -7.15625 C 0.0625 -7.257812 0.101562 -7.328125 0.1875 -7.359375 C 0.269531 -7.390625 0.398438 -7.40625 0.578125 -7.40625 L 2.28125 -7.40625 C 2.425781 -7.40625 2.535156 -7.390625 2.609375 -7.359375 C 2.691406 -7.328125 2.734375 -7.257812 2.734375 -7.15625 C 2.734375 -7.070312 2.703125 -7.003906 2.640625 -6.953125 C 2.585938 -6.898438 2.53125 -6.847656 2.46875 -6.796875 C 2.40625 -6.753906 2.375 -6.679688 2.375 -6.578125 C 2.375 -6.484375 2.4375 -6.34375 2.5625 -6.15625 L 4.015625 -3.96875 L 5.390625 -6.203125 C 5.492188 -6.390625 5.550781 -6.53125 5.5625 -6.625 C 5.570312 -6.71875 5.550781 -6.785156 5.5 -6.828125 C 5.457031 -6.867188 5.410156 -6.910156 5.359375 -6.953125 C 5.316406 -7.003906 5.296875 -7.070312 5.296875 -7.15625 C 5.296875 -7.25 5.335938 -7.3125 5.421875 -7.34375 C 5.503906 -7.382812 5.601562 -7.40625 5.71875 -7.40625 Z M 5.71875 -7.40625 "/></g></g></g></svg>